<svg width="56" height="56" viewBox="0 0 56 56" fill="none" xmlns="http://www.w3.org/2000/svg">
<path d="M35 49V36.4C35 35.0932 35 34.4398 34.7457 33.9407C34.522 33.5016 34.165 33.1447 33.726 32.921C33.2269 32.6667 32.5735 32.6667 31.2667 32.6667H24.7333C23.4265 32.6667 22.7731 32.6667 22.274 32.921C21.835 33.1447 21.478 33.5016 21.2543 33.9407C21 34.4398 21 35.0932 21 36.4V49M7 16.3333C7 20.1993 10.134 23.3333 14 23.3333C17.866 23.3333 21 20.1993 21 16.3333C21 20.1993 24.134 23.3333 28 23.3333C31.866 23.3333 35 20.1993 35 16.3333C35 20.1993 38.134 23.3333 42 23.3333C45.866 23.3333 49 20.1993 49 16.3333M14.4667 49H41.5333C44.1469 49 45.4537 49 46.452 48.4914C47.33 48.044 48.044 47.33 48.4914 46.452C49 45.4537 49 44.1469 49 41.5333V14.4667C49 11.8531 49 10.5463 48.4914 9.54804C48.044 8.66995 47.33 7.95605 46.452 7.50864C45.4537 7 44.1469 7 41.5333 7H14.4667C11.8531 7 10.5463 7 9.54804 7.50864C8.66995 7.95605 7.95605 8.66995 7.50864 9.54804C7 10.5463 7 11.8531 7 14.4667V41.5333C7 44.1469 7 45.4537 7.50864 46.452C7.95605 47.33 8.66995 48.044 9.54804 48.4914C10.5463 49 11.8531 49 14.4667 49Z" stroke="white" stroke-width="3.2" stroke-linecap="round" stroke-linejoin="round"/>
</svg>
